HIERARCHY
ROOT Hips
{
  OFFSET 263.056 91.6644 -274.608
  CHANNELS 6 Xposition Yposition Zposition Zrotation Xrotation Yrotation
  JOINT LeftUpLeg
  {
    OFFSET 8.64259 1.95398 -2.38835
    CHANNELS 3 Zrotation Xrotation Yrotation
    JOINT LeftLeg
    {
      OFFSET 43.7702 0 0
      CHANNELS 3 Zrotation Xrotation Yrotation
      JOINT LeftFoot
      {
        OFFSET 40.6238 0 0
        CHANNELS 3 Zrotation Xrotation Yrotation
        JOINT LeftToeBase
        {
          OFFSET 12.7242 0 0
          CHANNELS 3 Zrotation Xrotation Yrotation
          End Site
          {
            OFFSET 0 0 0
          }
        }
      }
    }
  }
  JOINT RightUpLeg
  {
    OFFSET -8.2249 1.95398 -2.59336
    CHANNELS 3 Zrotation Xrotation Yrotation
    JOINT RightLeg
    {
      OFFSET 43.5653 0 0
      CHANNELS 3 Zrotation Xrotation Yrotation
      JOINT RightFoot
      {
        OFFSET 40.6238 0 0
        CHANNELS 3 Zrotation Xrotation Yrotation
        JOINT RightToeBase
        {
          OFFSET 12.7242 0 0
          CHANNELS 3 Zrotation Xrotation Yrotation
          End Site
          {
            OFFSET 0 0 0
          }
        }
      }
    }
  }
  JOINT Spine
  {
    OFFSET 0.165834 0.87714 6.61349
    CHANNELS 3 Zrotation Xrotation Yrotation
    JOINT Spine1
    {
      OFFSET 7.38963 1.71661e-005 0
      CHANNELS 3 Zrotation Xrotation Yrotation
      JOINT Spine2
      {
        OFFSET 11.9445 1.14441e-005 0
        CHANNELS 3 Zrotation Xrotation Yrotation
        JOINT Spine3
        {
          OFFSET 14.7254 4.19617e-005 0
          CHANNELS 3 Zrotation Xrotation Yrotation
          JOINT Spine4
          {
            OFFSET 10.9679 0 0
            CHANNELS 3 Zrotation Xrotation Yrotation
            JOINT RightShoulder
            {
              OFFSET 2.46616 -1.6653 3.69651
              CHANNELS 3 Zrotation Xrotation Yrotation
              JOINT RightArm
              {
                OFFSET 13.0012 0 0
                CHANNELS 3 Zrotation Xrotation Yrotation
                JOINT RightForeArm
                {
                  OFFSET 28.7848 1.52588e-005 0
                  CHANNELS 3 Zrotation Xrotation Yrotation
                  JOINT RightHand
                  {
                    OFFSET 26.5688 1.52588e-005 0
                    CHANNELS 3 Zrotation Xrotation Yrotation
                    End Site
                    {
                      OFFSET 0 0 0
                    }
                  }
                }
              }
            }
            JOINT LeftShoulder
            {
              OFFSET 2.38034 -1.29275 -3.7523
              CHANNELS 3 Zrotation Xrotation Yrotation
              JOINT LeftArm
              {
                OFFSET 16.3182 6.10352e-005 0
                CHANNELS 3 Zrotation Xrotation Yrotation
                JOINT LeftForeArm
                {
                  OFFSET 27.0901 0 0
                  CHANNELS 3 Zrotation Xrotation Yrotation
                  JOINT LeftHand
                  {
                    OFFSET 24.5451 1.52588e-005 0
                    CHANNELS 3 Zrotation Xrotation Yrotation
                    End Site
                    {
                      OFFSET 0 0 0
                    }
                  }
                }
              }
            }
            JOINT Neck
            {
              OFFSET 5.0226 -0.0266342 0
              CHANNELS 3 Zrotation Xrotation Yrotation
              JOINT Head
              {
                OFFSET 6.69364 2.86102e-005 0
                CHANNELS 3 Zrotation Xrotation Yrotation
                End Site
                {
                  OFFSET 0 0 0
                }
              }
            }
          }
        }
      }
    }
  }
}
MOTION
Frames:	16
Frame Time:	0.0416667
-54.5296 97.3607 45.0624 -108.39 -86.9823 -107.83 -171.93 3.87339 91.6383 -8.09106 8.4973 -0.289166 60.3083 2.5371 8.53038 28.6725 1.38302 -14.8779 177.493 3.0657 89.5154 -9.49478 6.37923 -0.765554 63.0393 -1.49498 -0.810357 29.02 -0.595074 9.99249 -0.0396947 7.0665 -90.0178 12.7297 -0.0872877 -0.0252669 1.05877 -0.0883125 -0.0214056 -21.4764 -0.0756636 -0.0569069 -1.46377 -0.0756626 -0.0568994 79.2654 -52.0031 -116.17 24.4806 -10.7242 5.25092 -4.42608 -14.2845 -37.0934 -8.48183 -0.699582 3.8351 -105.242 -43.4505 53.4678 -28.4787 9.6912 5.20483 2.80693 9.19327 -28.801 10.5451 0.798996 3.4754 7.13873 1.43089 2.7354 -6.22954 0.864748 -0.410025 
-54.5143 97.3234 45.0883 -108.26 -87.0894 -107.724 -171.741 4.3881 91.7772 -8.78575 8.42577 -0.604567 59.826 2.62012 9.29377 31.9595 4.36979 -18.9054 177.492 3.21116 89.5003 -9.76084 6.6737 -0.781629 63.8411 -1.6317 -0.886349 27.4354 -0.895808 10.8008 -0.042031 7.06564 -90.0203 12.7431 -0.0931071 -0.0294395 1.07214 -0.094311 -0.0253167 -21.463 -0.0799615 -0.0551237 -1.45038 -0.07995 -0.0551155 79.3536 -51.9365 -116.069 24.4265 -10.7428 5.11401 -3.62887 -14.5169 -36.4366 -8.84931 -0.70674 3.58739 -105.21 -43.4602 53.5194 -28.5019 9.74003 5.04113 2.90187 9.52856 -28.7206 10.1067 0.810764 3.85857 8.29081 1.8195 2.78084 -6.82747 1.20867 -0.385137 
-54.5308 97.3272 45.0843 -111.271 -87.1525 -110.755 -171.799 4.17794 91.7435 -8.59583 8.63933 -0.537098 59.6929 2.64558 9.4302 31.7272 4.17815 -18.7066 177.52 3.06551 89.5336 -9.7222 7.05404 -0.851972 64.6163 -1.86338 -1.01657 25.5527 -1.28569 11.8611 -0.0666793 7.07191 -90.0113 12.7301 -0.137769 -0.00618645 1.05913 -0.137904 -0.000122262 -21.4761 -0.129545 -0.0473029 -1.46343 -0.129537 -0.0472977 79.1342 -51.9245 -116.391 24.3577 -10.799 5.2495 -3.4417 -14.203 -36.5986 -8.74167 -0.676069 3.24083 -105.078 -43.4741 53.7252 -28.5509 9.7645 5.08006 2.88492 9.49902 -28.8072 10.7016 0.872276 4.01666 8.17282 1.87407 2.668 -6.79313 1.28525 -0.264284 
-54.5192 97.3122 45.1264 -110.138 -87.1605 -109.56 -171.765 4.32563 91.8083 -8.78884 8.53631 -0.552492 59.7333 2.63333 9.47876 32.0013 4.4149 -19.158 177.483 3.13753 89.5243 -9.82787 6.61654 -0.753164 63.3849 -1.49368 -0.805803 28.563 -0.698268 10.3434 -0.0640555 7.07208 -90.0171 12.7301 -0.135334 -0.0180492 1.05919 -0.135994 -0.0120755 -21.476 -0.123649 -0.0578829 -1.46336 -0.123656 -0.0578887 79.2533 -51.9726 -116.2 24.1336 -10.9377 4.98875 -3.48098 -14.0854 -36.5679 -8.68726 -0.674883 3.27312 -105.02 -43.5153 53.8313 -28.4273 9.80391 4.96751 2.80341 9.35612 -28.8095 10.8292 0.880511 4.00682 8.34189 1.87443 2.58573 -6.92681 1.29326 -0.0821557 
-54.5108 97.3251 45.1746 -110.218 -87.2031 -109.619 -171.779 4.35266 91.8029 -8.87796 8.71443 -0.538989 59.8449 2.66873 9.47986 31.4128 3.92509 -18.7026 177.471 3.04521 89.5316 -9.73807 6.61368 -0.725878 63.0699 -1.42891 -0.770224 29.0768 -0.58781 10.0133 -0.0736452 7.06687 -90.025 12.7288 -0.158129 -0.0312266 1.05786 -0.159351 -0.0242406 -21.4774 -0.141442 -0.0773138 -1.46472 -0.141434 -0.0773063 79.2017 -51.941 -116.287 24.042 -10.7265 4.87608 -3.80428 -14.6345 -36.2606 -8.42926 -0.708468 4.02912 -105.009 -43.5765 53.8784 -28.358 9.78767 4.92105 2.78475 9.25768 -28.8116 10.5104 0.849596 3.94257 8.53809 1.93952 2.69983 -7.19929 1.32938 -0.119082 
-54.5527 97.3369 45.1684 -111.391 -87.1862 -110.861 -171.825 4.00402 91.7282 -8.42194 8.25357 -0.446375 60.1582 2.96588 8.80414 30.7158 3.32014 -17.9073 177.432 3.41636 89.472 -10.4992 6.89557 -0.708131 62.8686 -1.19035 -0.62106 29.8339 -0.486892 10.2445 -0.0748215 7.06572 -90.0215 12.7219 -0.158838 -0.0309306 1.05095 -0.159738 -0.024396 -21.4842 -0.144209 -0.0708471 -1.4716 -0.144205 -0.0708492 79.2428 -51.7462 -116.304 24.2829 -10.6775 5.02346 -3.89664 -14.5403 -36.531 -8.35287 -0.698198 3.94437 -105.057 -43.6239 53.8305 -28.3691 9.71022 4.94653 2.75647 9.05097 -28.834 10.6047 0.820709 3.62921 8.41342 1.98975 2.644 -7.02225 1.38934 0.0141876 
-54.5882 97.3485 45.1996 -111.896 -87.2731 -111.438 -171.895 4.11926 91.667 -8.57236 8.52097 -0.422109 59.6839 2.61036 9.15625 31.9756 4.36717 -18.4152 177.482 3.767 89.4556 -11.1893 7.01737 -0.800591 62.8043 -0.997012 -0.498979 30.1297 -0.436247 10.1431 -0.0720986 7.06634 -90.0211 12.7168 -0.153268 -0.0237364 1.04584 -0.154176 -0.0169405 -21.4894 -0.138932 -0.0690727 -1.47673 -0.138928 -0.069082 79.3406 -51.6675 -116.194 24.4431 -10.5455 5.08773 -3.93073 -15.1431 -36.5462 -8.90831 -0.773645 4.51953 -105.188 -43.6767 53.66 -28.2879 9.75183 4.97393 2.79998 9.24383 -28.8093 10.6343 0.824747 3.64614 8.91218 2.86519 2.69033 -7.52293 2.23318 -0.229743 
-54.5825 97.3392 45.2033 -111.124 -87.0316 -110.589 -171.777 4.04186 91.7916 -8.54139 8.50918 -0.512757 59.6063 2.55782 9.39521 31.9621 4.3674 -18.7176 177.472 3.33383 89.5221 -10.4573 6.82638 -0.749753 62.8267 -1.19336 -0.622647 29.7179 -0.5076 10.3036 -0.0490284 7.06724 -90.0395 12.7197 -0.116222 -0.0652813 1.04877 -0.118989 -0.0601164 -21.4864 -0.0912365 -0.097195 -1.47375 -0.0912331 -0.0971952 79.3155 -51.7699 -116.19 24.2225 -10.7618 5.06029 -3.57516 -14.9789 -36.4494 -9.20548 -0.781855 4.34737 -105.178 -43.6967 53.6837 -28.3877 9.85144 5.11087 2.77664 9.29689 -28.8489 10.5429 0.830034 3.74979 8.42543 5.95294 1.91617 -6.23082 5.416 0.546454 
-54.5821 97.3038 45.2728 -108.816 -86.9637 -108.258 -171.887 4.13227 91.7135 -8.7711 7.98232 -0.341514 60.2479 2.97159 8.9891 31.0278 3.58965 -18.1961 177.461 3.12482 89.5213 -9.97735 6.49772 -0.72779 63.2296 -1.44464 -0.779646 29.1742 -0.584912 10.2079 -0.0318955 7.06721 -90.0369 12.7394 -0.080933 -0.0640851 1.06847 -0.0836742 -0.060465 -21.4667 -0.0579309 -0.0854397 -1.45404 -0.0579366 -0.0854534 79.3796 -51.9173 -116.039 24.2513 -10.738 4.99092 -3.81812 -15.2397 -36.5059 -8.86015 -0.73782 4.01683 -104.913 -43.4829 53.9768 -28.5583 9.83183 5.01289 2.95935 9.63238 -28.9613 10.5486 0.872773 4.12147 8.13804 10.1061 0.236108 -5.82223 9.81281 2.15097 
-54.5875 97.3218 45.31 -109.078 -87.129 -108.596 -171.915 4.15813 91.6753 -8.65904 8.19509 -0.375993 59.7431 2.60088 9.27333 32.0811 4.47529 -19.0752 177.411 3.20423 89.4535 -10.1531 6.64638 -0.706303 63.2663 -1.41382 -0.759236 29.2712 -0.560924 10.0559 -0.0260384 7.06278 -90.0435 12.7483 -0.0725189 -0.0783837 1.07734 -0.0758887 -0.0751277 -21.4578 -0.0456084 -0.0965461 -1.44516 -0.0456045 -0.0965568 79.4926 -51.6967 -115.963 24.407 -10.8105 5.02801 -3.61048 -15.2185 -36.3956 -9.29358 -0.748824 3.7592 -104.922 -43.4978 53.9694 -28.3915 9.82939 4.91712 3.05754 9.72106 -29.0924 10.1468 0.847604 4.16709 7.99294 14.4441 -0.81417 -5.94431 14.2592 3.25986 
-54.591 97.3272 45.3307 -109.098 -87.223 -108.611 -171.917 4.12637 91.6625 -8.59907 8.38303 -0.381437 59.9312 2.75202 9.17402 31.4822 3.97022 -18.4529 177.397 3.28433 89.4415 -10.2626 6.66933 -0.688775 63.1278 -1.33145 -0.708038 29.5797 -0.504865 9.88899 -0.0144915 7.05448 -90.0566 12.7649 -0.0558288 -0.106558 1.09393 -0.0604621 -0.104005 -21.4412 -0.0212271 -0.11841 -1.42855 -0.021225 -0.118415 79.436 -51.6889 -116.048 24.3155 -10.8215 5.00954 -3.50519 -15.108 -36.3001 -9.28105 -0.751927 3.74705 -104.586 -43.3852 54.4188 -28.4573 10.1316 4.60309 2.93698 9.72522 -29.1651 10.2996 0.855402 4.13712 7.46124 18.4651 -1.62979 -5.9668 18.3521 4.24795 
-54.5631 97.326 45.3602 -109.061 -87.3929 -108.637 -171.873 4.1662 91.6419 -8.52435 8.57239 -0.497193 59.7491 2.65252 9.28992 31.7579 4.19585 -18.5274 177.358 3.33591 89.366 -10.3253 6.82024 -0.679982 63.1974 -1.34725 -0.718921 29.4243 -0.544426 10.1647 0.00170454 7.05972 -90.065 12.7544 -0.0276192 -0.12659 1.08343 -0.0331673 -0.125259 -21.4517 0.0116945 -0.129039 -1.43902 0.0117001 -0.129037 79.6056 -51.8135 -115.753 24.0518 -10.8844 4.85584 -3.61246 -14.8354 -36.5808 -8.80102 -0.749468 4.26195 -104.52 -43.3323 54.4936 -28.3823 10.1506 4.35641 2.90304 9.75614 -29.0278 10.2391 0.808493 3.75239 7.0189 21.5518 -1.94531 -6.04986 21.4274 4.96835 
-54.5761 97.3201 45.3578 -109.54 -87.4346 -109.234 -171.989 4.07803 91.4834 -8.35626 8.79599 -0.455028 59.4729 2.67808 9.82852 31.9291 4.35114 -18.9944 177.323 3.46352 89.273 -10.5738 6.97541 -0.702068 63.3082 -1.32483 -0.703828 29.259 -0.592455 10.5507 0.0200426 7.0716 -90.0885 12.7306 -0.00245441 -0.176639 1.05968 -0.0102216 -0.176374 -21.4754 0.050744 -0.169206 -1.46274 0.0507436 -0.169222 79.8351 -51.5597 -115.519 24.0609 -11.2559 4.64197 -3.2767 -14.2877 -36.3505 -9.47323 -0.739165 3.50678 -104.528 -43.4391 54.5331 -28.3719 10.371 4.15344 2.77469 9.7035 -29.1171 10.3908 0.875149 4.24827 6.19601 23.8028 -0.950705 -5.36679 23.4844 5.21272 
-54.5921 97.3065 45.3637 -109.467 -87.3439 -109.033 -171.89 4.14638 91.6529 -8.62636 8.47961 -0.443553 60.0538 2.8011 8.99804 31.4508 3.92657 -18.0485 177.299 3.1684 89.3657 -10.137 6.59449 -0.611037 63.3755 -1.47854 -0.799932 29.4015 -0.52266 9.73289 0.0393833 7.08648 -90.1076 12.7009 0.0268541 -0.218162 1.02992 0.0172349 -0.219139 -21.5051 0.0911845 -0.2 -1.49247 0.0911853 -0.200002 79.4335 -51.8986 -115.968 23.7889 -10.9047 4.75907 -3.5111 -14.7746 -36.4985 -8.55551 -0.737872 4.34873 -104.388 -43.4618 54.7553 -28.2533 10.6417 4.14957 2.70406 9.81779 -29.2651 10.4113 0.877028 4.2497 5.88207 25.2916 -0.198738 -5.07935 24.8334 5.0005 
-54.6747 97.3024 45.3478 -111.513 -87.602 -111.092 -171.893 4.19134 91.6915 -8.59451 8.6235 -0.438685 59.9454 2.82226 9.05075 31.6618 4.11579 -18.4681 177.344 3.18855 89.4117 -10.2335 6.64547 -0.63506 63.6064 -1.5555 -0.848822 29.1472 -0.55285 9.59436 0.0293646 7.10603 -90.1176 12.6618 0.00224163 -0.235178 0.990783 -0.00810874 -0.235066 -21.5442 0.0728161 -0.223636 -1.53157 0.072819 -0.223635 79.6055 -51.7231 -115.788 24.0246 -10.9041 4.69574 -3.60884 -14.2856 -36.3075 -8.20559 -0.668202 3.63186 -104.432 -43.3264 54.6232 -28.3236 10.539 4.11371 2.733 9.82993 -29.0864 10.2091 0.80157 3.71046 6.08779 26.7764 0.388876 -5.44574 26.1685 5.24504 
-54.6705 97.3166 45.3777 -110.383 -87.6402 -109.993 -171.875 4.18484 91.6816 -8.4558 8.8319 -0.504033 59.7047 2.7284 9.3713 31.7663 4.22068 -18.9892 177.389 3.84988 89.4061 -11.2894 7.37814 -0.666099 62.9249 -0.997586 -0.500563 30.1368 -0.442454 10.2917 0.0677659 7.11247 -90.1332 12.649 0.0710597 -0.274538 0.977981 0.0589046 -0.277407 -21.557 0.150279 -0.240494 -1.54435 0.150282 -0.240494 79.9806 -51.672 -115.264 23.9395 -11.1474 4.6667 -3.2658 -13.9794 -36.2921 -8.79738 -0.692911 3.45887 -104.674 -43.2845 54.2375 -28.3242 10.5314 3.97461 2.68573 9.69151 -29.1469 10.2472 0.833867 3.97508 6.18288 27.7702 0.719637 -5.78955 27.0776 5.06757 
